<mxfile host="Electron" modified="2024-05-17T07:42:48.024Z" agent="Mozilla/5.0 (Windows NT 10.0; Win64; x64) AppleWebKit/537.36 (KHTML, like Gecko) draw.io/24.4.0 Chrome/120.0.6099.109 Electron/28.1.0 Safari/537.36" etag="LczGAgsWy-Z9b83kvBo-" version="24.4.0" type="device">
  <diagram id="C5RBs43oDa-KdzZeNtuy" name="Page-1">
    <mxGraphModel dx="1195" dy="1972" grid="1" gridSize="10" guides="1" tooltips="1" connect="1" arrows="1" fold="1" page="1" pageScale="1" pageWidth="827" pageHeight="1169" math="0" shadow="0">
      <root>
        <mxCell id="WIyWlLk6GJQsqaUBKTNV-0" />
        <mxCell id="WIyWlLk6GJQsqaUBKTNV-1" parent="WIyWlLk6GJQsqaUBKTNV-0" />
        <mxCell id="WIyWlLk6GJQsqaUBKTNV-6" value="sayac&amp;lt;11" style="rhombus;whiteSpace=wrap;html=1;shadow=0;fontFamily=Helvetica;fontSize=12;align=center;strokeWidth=1;spacing=6;spacingTop=-4;fillColor=#FFEDE8;" parent="WIyWlLk6GJQsqaUBKTNV-1" vertex="1">
          <mxGeometry x="180" width="100" height="80" as="geometry" />
        </mxCell>
        <mxCell id="RD_uL8bkt1OxD2Qk7sh--0" value="başla" style="ellipse;whiteSpace=wrap;html=1;aspect=fixed;" parent="WIyWlLk6GJQsqaUBKTNV-1" vertex="1">
          <mxGeometry x="190" y="-530" width="60" height="60" as="geometry" />
        </mxCell>
        <mxCell id="RD_uL8bkt1OxD2Qk7sh--17" value="bitir" style="ellipse;whiteSpace=wrap;html=1;aspect=fixed;" parent="WIyWlLk6GJQsqaUBKTNV-1" vertex="1">
          <mxGeometry x="180" y="130" width="80" height="80" as="geometry" />
        </mxCell>
        <mxCell id="RD_uL8bkt1OxD2Qk7sh--1" value="&lt;div&gt;&quot;sırayla 10 adet sayı girin&quot; A&lt;/div&gt;&lt;div&gt;&lt;br&gt;&lt;/div&gt;" style="shape=parallelogram;perimeter=parallelogramPerimeter;whiteSpace=wrap;html=1;fixedSize=1;" parent="WIyWlLk6GJQsqaUBKTNV-1" vertex="1">
          <mxGeometry x="140" y="-330" width="200" height="60" as="geometry" />
        </mxCell>
        <mxCell id="k4dyQDpF1Wjppz-cua7C-11" value="" style="edgeStyle=elbowEdgeStyle;elbow=horizontal;endArrow=classic;html=1;curved=0;rounded=0;endSize=8;startSize=8;exitX=0.47;exitY=1.007;exitDx=0;exitDy=0;entryX=0.576;entryY=0.007;entryDx=0;entryDy=0;entryPerimeter=0;exitPerimeter=0;" parent="WIyWlLk6GJQsqaUBKTNV-1" source="WIyWlLk6GJQsqaUBKTNV-6" target="RD_uL8bkt1OxD2Qk7sh--17" edge="1">
          <mxGeometry width="50" height="50" relative="1" as="geometry">
            <mxPoint x="390" y="320" as="sourcePoint" />
            <mxPoint x="440" y="270" as="targetPoint" />
            <Array as="points" />
          </mxGeometry>
        </mxCell>
        <mxCell id="k4dyQDpF1Wjppz-cua7C-13" value="no" style="text;html=1;align=center;verticalAlign=middle;resizable=0;points=[];autosize=1;strokeColor=none;fillColor=none;" parent="WIyWlLk6GJQsqaUBKTNV-1" vertex="1">
          <mxGeometry x="330" y="40" width="40" height="30" as="geometry" />
        </mxCell>
        <mxCell id="k4dyQDpF1Wjppz-cua7C-19" value="" style="edgeStyle=elbowEdgeStyle;elbow=horizontal;endArrow=classic;html=1;curved=0;rounded=0;endSize=8;startSize=8;entryX=0.5;entryY=0;entryDx=0;entryDy=0;" parent="WIyWlLk6GJQsqaUBKTNV-1" target="WIyWlLk6GJQsqaUBKTNV-6" edge="1">
          <mxGeometry width="50" height="50" relative="1" as="geometry">
            <mxPoint x="230" y="-30" as="sourcePoint" />
            <mxPoint x="229.82999999999998" y="-10" as="targetPoint" />
            <Array as="points">
              <mxPoint x="229.82999999999998" y="-20" />
            </Array>
          </mxGeometry>
        </mxCell>
        <mxCell id="k4dyQDpF1Wjppz-cua7C-23" style="edgeStyle=orthogonalEdgeStyle;rounded=0;orthogonalLoop=1;jettySize=auto;html=1;exitX=0.5;exitY=1;exitDx=0;exitDy=0;entryX=0.5;entryY=0;entryDx=0;entryDy=0;" parent="WIyWlLk6GJQsqaUBKTNV-1" source="RD_uL8bkt1OxD2Qk7sh--0" target="x6k_l4COWHd50tIa5_yd-0" edge="1">
          <mxGeometry relative="1" as="geometry" />
        </mxCell>
        <mxCell id="k4dyQDpF1Wjppz-cua7C-27" value="" style="edgeStyle=elbowEdgeStyle;elbow=horizontal;endArrow=classic;html=1;curved=0;rounded=0;endSize=8;startSize=8;exitX=-0.035;exitY=0.513;exitDx=0;exitDy=0;exitPerimeter=0;" parent="WIyWlLk6GJQsqaUBKTNV-1" source="WIyWlLk6GJQsqaUBKTNV-6" edge="1" target="RD_uL8bkt1OxD2Qk7sh--1">
          <mxGeometry width="50" height="50" relative="1" as="geometry">
            <mxPoint x="160" y="280" as="sourcePoint" />
            <mxPoint x="160" y="-270" as="targetPoint" />
            <Array as="points">
              <mxPoint x="60" y="140" />
            </Array>
          </mxGeometry>
        </mxCell>
        <mxCell id="x6k_l4COWHd50tIa5_yd-0" value="sayac=1" style="rounded=0;whiteSpace=wrap;html=1;" vertex="1" parent="WIyWlLk6GJQsqaUBKTNV-1">
          <mxGeometry x="160" y="-420" width="120" height="60" as="geometry" />
        </mxCell>
        <mxCell id="x6k_l4COWHd50tIa5_yd-1" value="A%2==0" style="rhombus;whiteSpace=wrap;html=1;shadow=0;fontFamily=Helvetica;fontSize=12;align=center;strokeWidth=1;spacing=6;spacingTop=-4;fillColor=#FFEDE8;" vertex="1" parent="WIyWlLk6GJQsqaUBKTNV-1">
          <mxGeometry x="180" y="-250" width="100" height="80" as="geometry" />
        </mxCell>
        <mxCell id="x6k_l4COWHd50tIa5_yd-2" value="print A" style="shape=document;whiteSpace=wrap;html=1;boundedLbl=1;" vertex="1" parent="WIyWlLk6GJQsqaUBKTNV-1">
          <mxGeometry x="170" y="-90" width="120" height="80" as="geometry" />
        </mxCell>
        <mxCell id="x6k_l4COWHd50tIa5_yd-3" value="" style="edgeStyle=elbowEdgeStyle;elbow=horizontal;endArrow=classic;html=1;curved=0;rounded=0;endSize=8;startSize=8;entryX=0.5;entryY=0;entryDx=0;entryDy=0;" edge="1" parent="WIyWlLk6GJQsqaUBKTNV-1" target="x6k_l4COWHd50tIa5_yd-10">
          <mxGeometry width="50" height="50" relative="1" as="geometry">
            <mxPoint x="230" y="-170" as="sourcePoint" />
            <mxPoint x="229.67" y="-140" as="targetPoint" />
            <Array as="points">
              <mxPoint x="229.49999999999997" y="-170" />
            </Array>
          </mxGeometry>
        </mxCell>
        <mxCell id="x6k_l4COWHd50tIa5_yd-4" value="" style="edgeStyle=elbowEdgeStyle;elbow=horizontal;endArrow=classic;html=1;curved=0;rounded=0;endSize=8;startSize=8;exitX=1;exitY=0.5;exitDx=0;exitDy=0;exitPerimeter=0;" edge="1" parent="WIyWlLk6GJQsqaUBKTNV-1" source="x6k_l4COWHd50tIa5_yd-1" target="WIyWlLk6GJQsqaUBKTNV-6">
          <mxGeometry width="50" height="50" relative="1" as="geometry">
            <mxPoint x="290" y="-220" as="sourcePoint" />
            <mxPoint x="270" y="150" as="targetPoint" />
            <Array as="points">
              <mxPoint x="380" y="30" />
            </Array>
          </mxGeometry>
        </mxCell>
        <mxCell id="x6k_l4COWHd50tIa5_yd-6" value="" style="edgeStyle=elbowEdgeStyle;elbow=horizontal;endArrow=classic;html=1;curved=0;rounded=0;endSize=8;startSize=8;entryX=0.5;entryY=0;entryDx=0;entryDy=0;exitX=0.412;exitY=0.978;exitDx=0;exitDy=0;exitPerimeter=0;" edge="1" parent="WIyWlLk6GJQsqaUBKTNV-1" source="RD_uL8bkt1OxD2Qk7sh--1" target="x6k_l4COWHd50tIa5_yd-1">
          <mxGeometry width="50" height="50" relative="1" as="geometry">
            <mxPoint x="230" y="-350" as="sourcePoint" />
            <mxPoint x="230" y="-330" as="targetPoint" />
            <Array as="points">
              <mxPoint x="230" y="-280" />
            </Array>
          </mxGeometry>
        </mxCell>
        <mxCell id="x6k_l4COWHd50tIa5_yd-8" value="yes" style="text;html=1;align=center;verticalAlign=middle;resizable=0;points=[];autosize=1;strokeColor=none;fillColor=none;" vertex="1" parent="WIyWlLk6GJQsqaUBKTNV-1">
          <mxGeometry x="240" y="-190" width="40" height="30" as="geometry" />
        </mxCell>
        <mxCell id="x6k_l4COWHd50tIa5_yd-9" value="no" style="text;html=1;align=center;verticalAlign=middle;resizable=0;points=[];autosize=1;strokeColor=none;fillColor=none;" vertex="1" parent="WIyWlLk6GJQsqaUBKTNV-1">
          <mxGeometry x="310" y="-230" width="40" height="30" as="geometry" />
        </mxCell>
        <mxCell id="x6k_l4COWHd50tIa5_yd-10" value="A=A^2&lt;div&gt;sayac+=1&lt;/div&gt;" style="rounded=0;whiteSpace=wrap;html=1;" vertex="1" parent="WIyWlLk6GJQsqaUBKTNV-1">
          <mxGeometry x="175" y="-150" width="110" height="40" as="geometry" />
        </mxCell>
        <mxCell id="x6k_l4COWHd50tIa5_yd-12" value="" style="edgeStyle=elbowEdgeStyle;elbow=horizontal;endArrow=classic;html=1;curved=0;rounded=0;endSize=8;startSize=8;entryX=0.5;entryY=0;entryDx=0;entryDy=0;" edge="1" parent="WIyWlLk6GJQsqaUBKTNV-1">
          <mxGeometry width="50" height="50" relative="1" as="geometry">
            <mxPoint x="230" y="-110" as="sourcePoint" />
            <mxPoint x="230.25" y="-90" as="targetPoint" />
            <Array as="points">
              <mxPoint x="229.74999999999997" y="-110" />
            </Array>
          </mxGeometry>
        </mxCell>
        <mxCell id="x6k_l4COWHd50tIa5_yd-14" style="edgeStyle=orthogonalEdgeStyle;rounded=0;orthogonalLoop=1;jettySize=auto;html=1;exitX=0.5;exitY=1;exitDx=0;exitDy=0;entryX=0.388;entryY=0.008;entryDx=0;entryDy=0;entryPerimeter=0;" edge="1" parent="WIyWlLk6GJQsqaUBKTNV-1" source="x6k_l4COWHd50tIa5_yd-0" target="RD_uL8bkt1OxD2Qk7sh--1">
          <mxGeometry relative="1" as="geometry" />
        </mxCell>
      </root>
    </mxGraphModel>
  </diagram>
</mxfile>
